<?xml version="1.0" encoding="UTF-8"?>
<svg id="Layer_2" data-name="Layer 2" xmlns="http://www.w3.org/2000/svg" viewBox="0 0 86.29 106.96">
  <defs>
    <style>
      .cls-1 {
        fill: #91215c;
      }
    </style>
  </defs>
  <g id="Graphic_Elements" data-name="Graphic Elements">
    <path class="cls-1" d="m86.29,39.04c0,23.29-14.68,42.03-35.03,42.03-6.84,0-13.29-3.56-15.46-7.78,0,0-3.39,12.9-4.22,16.06-1.49,5.85-5.54,13.1-8.32,17.61-1.55-.47-3.08-1.01-4.58-1.59-.61-5.34-1.11-13.57.22-19.41,1.22-5.28,7.9-33.58,7.9-33.58,0,0-2.01-4.06-2.01-10.01,0-9.39,5.45-16.4,12.24-16.4,5.78,0,8.56,4.34,8.56,9.51,0,5.78-3.67,14.45-5.62,22.52-1.61,6.72,3.4,12.23,10.01,12.23,12.01,0,21.24-12.68,21.24-30.92,0-16.18-11.62-27.46-28.24-27.46-19.24,0-30.53,14.4-30.53,29.3,0,5.78,2.23,12.01,5.01,15.4.55.67.61,1.28.44,1.95-.5,2.11-1.67,6.72-1.89,7.67-.28,1.22-1,1.5-2.28.89C5.28,63.11,0,50.82,0,40.87,0,19.58,15.45,0,44.64,0c23.41,0,41.65,16.68,41.65,39.04Z"/>
  </g>
</svg>