<?xml version="1.0" encoding="UTF-8"?>
<svg id="Layer_2" data-name="Layer 2" xmlns="http://www.w3.org/2000/svg" viewBox="0 0 90 63">
  <defs>
    <style>
      .cls-1 {
        fill: #91215c;
      }
    </style>
  </defs>
  <g id="Graphic_Elements" data-name="Graphic Elements">
    <path class="cls-1" d="m88.12,9.84c-1.03-3.87-4.08-6.92-7.96-7.96-7.02-1.88-35.16-1.88-35.16-1.88,0,0-28.14,0-35.16,1.88-3.87,1.04-6.92,4.08-7.96,7.96C0,16.86,0,31.5,0,31.5c0,0,0,14.64,1.88,21.66,1.03,3.87,4.08,6.92,7.96,7.96,7.02,1.88,35.16,1.88,35.16,1.88,0,0,28.14,0,35.16-1.88,3.87-1.04,6.92-4.08,7.96-7.96,1.88-7.02,1.88-21.66,1.88-21.66,0,0,0-14.64-1.88-21.66Zm-52.12,35.16v-27l23.38,13.5-23.38,13.5Z"/>
  </g>
</svg>